<svg xmlns="http://www.w3.org/2000/svg" xmlns:xlink="http://www.w3.org/1999/xlink" version="1.1" x="0px" y="0px" viewBox="0 0 128 160" style="enable-background:new 0 0 128 128;" xml:space="preserve"><path d="M54.3306007,99.5L24.8237,104.7792969c-0.2679996,0.0478058-0.5049,0.2031021-0.6557007,0.4302063  c-0.1513996,0.2264938-0.2031994,0.5048981-0.1441002,0.7709961l2.7158012,12.2362976  C26.8428001,118.6811981,27.2544003,119,27.7147999,119c0.0585995,0,0.1177006-0.0048981,0.1772995-0.0156021L127.1763,101.2207031  c0.2679977-0.0478058,0.5048981-0.2031021,0.6557007-0.4302063c0.1513977-0.2264938,0.2032013-0.5048981,0.1440964-0.7709961  l-0.1973038-0.8890991l0,0l-1.4179993-6.3902054L126.3603973,92.7388l-1.0997009-4.9555969  c-0.0682983-0.307106-0.278801-0.5371017-0.5414963-0.6669998l-0.0014038-0.0044022  c-0.040596-0.0200043-0.0839996-0.033699-0.1269989-0.0493011c-0.0507965-0.0170975-0.0996017-0.033699-0.1532974-0.0419998  c-0.0493011-0.0098038-0.0981064-0.0214996-0.1499023-0.0214996c-0.0590973,0-0.1191025,0.0054016-0.1791992,0.0166016  L54.3306007,99.5L54.3306007,99.5z M34.3618011,111.464798c-0.0732002,0.0166016-0.1459999,0.0240021-0.2178001,0.0240021  c-0.4584999,0-0.8715019-0.3169022-0.9751015-0.7832031l-1.1498985-5.181694l1.9702988-0.3525009l1.1318016,5.1006012  C35.2406998,110.810997,34.9009018,111.3451996,34.3618011,111.464798z M42.1488991,110.0718002  c-0.0732002,0.0166016-0.1459999,0.0239029-0.217701,0.0239029c-0.4584999,0-0.8715973-0.3169022-0.9750977-0.7832031  l-1.1504021-5.1820984l1.9702034-0.3526001l1.1322975,5.1010971  C43.0278015,109.4179993,42.6879997,109.9521027,42.1488991,110.0718002z M49.9355011,108.6781998  c-0.0732002,0.0166016-0.1459007,0.0239029-0.217701,0.0239029c-0.4584999,0-0.8721008-0.3172989-0.9751015-0.7832031  l-1.1498985-5.1816025l1.9701996-0.3524933l1.1318016,5.1005936  C50.8144989,108.0249023,50.4746017,108.5586014,49.9355011,108.6781998z M57.7226982,107.285202  c-0.0732994,0.0166016-0.1459999,0.0238953-0.2177963,0.0238953c-0.4585037,0-0.8721008-0.3173981-0.9751015-0.7831955  l-1.1498985-5.1820984l1.9701996-0.3521042l1.1317978,5.1006012  C58.6016006,106.6317978,58.2616997,107.1654968,57.7226982,107.285202z M65.5098038,105.8916016  c-0.0733032,0.0166016-0.1460037,0.0238953-0.217804,0.0238953c-0.4584961,0-0.8715973-0.3168945-0.9750977-0.7831955  l-1.1499023-5.1816025l1.9697037-0.3526001l1.1322937,5.1006012  C66.3887024,105.2378006,66.0487976,105.7720032,65.5098038,105.8916016z M73.2968979,104.498497  c-0.0732956,0.0166016-0.1459961,0.0240021-0.2177963,0.0240021c-0.4585037,0-0.8716049-0.3169022-0.9751053-0.7831955  L71.1631012,99.5h2.0483017l0.8447952,3.8057022C74.1757965,103.8447037,73.8358994,104.3788986,73.2968979,104.498497z   M81.0839996,103.1054993c-0.0733032,0.0166016-0.1459961,0.0239029-0.2177963,0.0239029  c-0.4585037,0-0.8716049-0.3169022-0.9751053-0.7832031L79.2593002,99.5h2.0483017l0.5356979,2.4125977  C81.9628983,102.4516983,81.6230011,102.9858017,81.0839996,103.1054993z M88.8711014,101.7118988  c-0.073204,0.0166016-0.1460037,0.0239029-0.217804,0.0239029c-0.4584961,0-0.8715973-0.3169022-0.9750977-0.7832031  L87.3560028,99.5h2.0482941l0.2261047,1.0189972C89.75,101.0580978,89.410202,101.5923004,88.8711014,101.7118988z   M96.6576996,100.3188019c-0.0731964,0.0166016-0.1459961,0.0239944-0.2177963,0.0239944  c-0.4585037,0-0.8720016-0.3173981-0.9751053-0.7831955L95.4516983,99.5h1.9726028  C97.3612976,99.8930969,97.0698013,100.2275009,96.6576996,100.3188019z"/><path d="M4.4331102,85.6973038C4.1591802,86.5205002,4,87.3740005,4,88.2548981C4,94.4555969,11.1698999,99.5,19.9824009,99.5  h22.9927006l80.7714996-14.4512024c0.1185989-0.0218964,0.2391968-0.0258942,0.3598022-0.0331955L111.907196,43.2196999  C111.7826996,42.793499,111.3915939,42.5,110.9472961,42.5H91.8896027L90.6317978,36H97.5c0.5522003,0,1-0.4477997,1-1  s-0.4477997-1-1-1h-7.2554016l-2.1875-11.3022003c0.875-0.9531994,1.3990021-2.1879997,1.4400024-3.5273991  c0.0454025-1.4678001-0.4833984-2.8656998-1.490303-3.9365005c-0.8125-0.8648005-1.8622971-1.4136-3.0067978-1.6239996V10  c0-0.5522499-0.4477997-1-1-1s-1,0.4477501-1,1v3.5972004c-2.5102997,0.4545994-4.4154968,2.5858994-4.4975967,5.2328987  c-0.0463028,1.4990005,0.5283966,2.9082012,1.5248947,3.9546013c-0.0013962,0.0067997-0.0062943,0.0121994-0.0077972,0.0189991  L77.7802963,34H70.5c-0.5522003,0-1,0.4477997-1,1s0.4477997,1,1,1h6.8804016l-1.3003006,6.5H24.9692001  c-2.5844002-2.5049019-6.700201-4-11.1493998-4c-2.6289005,0-5.1723404,0.5928001-7.5541706,1.7593002  c-0.2202196,0.1058998-0.43995,0.2201996-0.6596699,0.338398c-0.06494,0.028801-0.1245098,0.0605011-0.18116,0.1015015  c-2.87744,1.5966988-5.5414991,4.1094017-5.418941,5.2206993c0.008789,0.0762024,0.025879,0.1519012,0.051758,0.224102  C3.9233401,57.0488014,4.8134799,77.2524033,4.4331102,85.6973038z M19.4048004,91.7416992L15.7821999,79.4375  c1.3267002-0.2769012,2.7373009-0.4276962,4.200201-0.4276962c6.3256989,0,11.9081993,2.7762985,13.0352001,6.4676971  C32.1806984,88.7021027,25.9409008,91.5391006,19.4048004,91.7416992z M67.8345032,89.2646027L63.8344994,95.3237  c-0.1851006,0.2807999-0.4986,0.4492035-0.8344994,0.4492035H39c-0.5522003,0-1-0.4477005-1-1c0-0.5522003,0.4477997-1,1-1  h23.4618988l3.703598-5.6098022c0.3047028-0.4609985,0.9253006-0.5884018,1.3852997-0.283699  C68.0117035,88.1836014,68.1387024,88.8037033,67.8345032,89.2646027z M75.5,60c0.5522003,0,1,0.4477997,1,1s-0.4477997,1-1,1  H42.0116997l3.6612015,8.608902c0.2157974,0.5077972-0.0209999,1.0951996-0.5293007,1.3115005  c-0.1274986,0.0541992-0.2602997,0.080101-0.3907013,0.080101c-0.3890991,0-0.7588005-0.2285004-0.9208984-0.6094055  l-4.2523994-9.9999962c-0.1314011-0.3086014-0.0986023-0.6626015,0.0863991-0.9429016C39.8511009,60.168499,40.1646004,60,40.5,60  H75.5z M68.5355988,54.6557999c0.251503-0.4911995,0.8540039-0.6861,1.346199-0.4341011  c0.6822052,0.3496017,1.5567017,0.6738014,2.5987015,0.9638023c0.5322037,0.1479988,0.8432007,0.6992989,0.6952972,1.2314987  c-0.1231003,0.4424019-0.5248947,0.732399-0.9628983,0.732399c-0.0888977,0-0.1786957-0.0121994-0.2686005-0.0370979  c-1.1713943-0.3262024-2.1722946-0.6996994-2.9745941-1.110302C68.4785004,55.75,68.2842026,55.1474991,68.5355988,54.6557999z   M90.8993988,47.9096985l0.3993988,2.0634003c-0.4887009-0.0672989-0.9887009-0.1283989-1.498497-0.1815987  c-0.5493011-0.0576019-0.9477997-0.5493011-0.8906021-1.0985985c0.0570984-0.5493011,0.5503006-0.9444008,1.0986023-0.8907013  C90.310997,47.8339996,90.6029968,47.8730011,90.8993988,47.9096985z M92.7372971,55.8031998  c1.0205002-0.1786995,1.9653015-0.3890991,2.8086014-0.625c0.528801-0.1493988,1.0835037,0.1612015,1.232399,0.6934013  c0.1489029,0.5317001-0.1615982,1.0834999-0.6932983,1.232399c-0.9067993,0.2538986-1.9169998,0.4790001-3.0029984,0.6688995  c-0.0580978,0.0102997-0.1162033,0.0152016-0.1733017,0.0152016c-0.4770966,0-0.8988953-0.3418007-0.983902-0.8277016  C91.8295975,56.4165001,92.1933975,55.8983994,92.7372971,55.8031998z M89.8544998,56.2025986  c0.5518036-0.0487976,1.0419998,0.339901,1.1000977,0.8892021c0.0581055,0.5493011-0.3402939,1.0419998-0.8891983,1.1000977  c-0.9759979,0.1030006-1.9935989,0.1816025-3.0249023,0.2329025c-0.0170975,0.0009995-0.033699,0.0014992-0.0507965,0.0014992  c-0.5292969,0-0.9710999-0.4155998-0.9974976-0.9501991c-0.0278015-0.5517998,0.3969955-1.0209999,0.9487-1.0484009  C87.9350967,56.3778992,88.9154968,56.3022003,89.8544998,56.2025986z M86.935997,49.5708008  c-0.0165939,0-0.0331955-0.0004997-0.0497971-0.0009995C85.9375,49.5233994,84.9667969,49.5,84,49.5  c-0.5522003,0-1.0210037-0.4477997-1.0210037-1s0.4268036-1,0.9790039-1H84c0.9990005,0,2.0028992,0.0243988,2.983902,0.0718002  c0.5513,0.0267982,0.9769974,0.4961014,0.9501953,1.0477982C87.9076996,49.1543007,87.4657974,49.5708008,86.935997,49.5708008z   M84,56.5c0.5522003,0,1.0067978,0.4477997,1.0067978,1s-0.4403992,1-0.9925995,1H84  c-1.0093002,0-2.0224991-0.0248985-3.0117035-0.0732002c-0.551796-0.027401-0.976593-0.4966011-0.9496994-1.0484009  c0.0273056-0.5517006,0.4765015-0.9780006,1.0483017-0.9496994C82.0435028,56.4761009,83.0233994,56.5,84,56.5z M83,61.4473  c0,0.5576019-0.4473038,1.0097008-1,1.0097008c-0.5522003,0-1-0.4520988-1-1.0097008c0-0.5577011,0.4477997-1.0098,1-1.0098  C82.5526962,60.4375,83,60.8895988,83,61.4473z M81.0313034,49.5737c-0.9942017,0.0503006-1.974205,0.1264992-2.9131012,0.2266006  c-0.0362015,0.0033989-0.0718002,0.0053978-0.1075058,0.0053978c-0.5043945,0-0.9383926-0.3808975-0.9930954-0.8941002  c-0.0580978-0.5492973,0.339798-1.0419998,0.8887024-1.1005974c0.9759979-0.1035004,1.9935989-0.1826019,3.0243988-0.2343025  c0.5482941-0.0287971,1.0209961,0.3959999,1.0487976,0.9482002C82.0073013,49.0761986,81.5830002,49.5458984,81.0313034,49.5737z   M75.2910004,55.8086014c0.9052963,0.1581993,1.875,0.2919998,2.881897,0.3974991  c0.5493011,0.0575981,0.9477005,0.5498009,0.8901062,1.0990982c-0.0542068,0.5136032-0.4878006,0.8955002-0.9937057,0.8955002  c-0.0345993,0-0.0698013-0.0019989-0.1054001-0.0053978c-1.051796-0.110302-2.0673981-0.2504997-3.017601-0.4169998  c-0.5439987-0.0946999-0.9076996-0.6133003-0.8125-1.1571999C74.2289963,56.0775986,74.7451019,55.7153015,75.2910004,55.8086014z   M60,70.5361023c0,0.5577011-0.4473,1.0097961-1,1.0097961c-0.5522003,0-1-0.452095-1-1.0097961  c0-0.5576019,0.4477997-1.0097046,1-1.0097046C59.5527,69.5263977,60,69.9785004,60,70.5361023z M83,81H45  c-0.5522003,0-1-0.4477997-1-1s0.4477997-1,1-1h38c0.5522003,0,1,0.4477997,1,1S83.5522003,81,83,81z M90,81.6445007  c-0.5522003,0-1-0.4521027-1-1.009697C89,80.0771027,89.4477997,79.625,90,79.625c0.5526962,0,1,0.4521027,1,1.0098038  C91,81.1923981,90.5526962,81.6445007,90,81.6445007z M106.8550034,69.4853973l6.0023956,10  c0.1856003,0.3090057,0.1904984,0.6938019,0.0126953,1.0073013C112.692894,80.8061981,112.3603973,81,112,81H97.0137024  c-0.5522995,0-1-0.4477997-1-1s0.4477005-1,1-1h13.219696l-4.8018036-8H66c-0.5522003,0-1-0.4477997-1-1s0.4477997-1,1-1h39.9975967  C106.3485947,69,106.6742935,69.1840973,106.8550034,69.4853973z M105,60.4375c0,0.5522003-0.4477997,1-1,1H88  c-0.5522003,0-1-0.4477997-1-1s0.4477997-1,1-1h16C104.5522003,59.4375,105,59.8852997,105,60.4375z M100.4730988,51.9726982  c0.5458984-0.0371971,0.995697,0.377903,1.0240021,0.9189034C101.4980011,52.9091988,101.5,52.982399,101.5,53  c0,1.1455002-0.8213043,2.1509018-2.4413986,2.9873009c-0.1470032,0.0756989-0.3037033,0.1112976-0.4580002,0.1112976  c-0.3623047,0-0.7118988-0.197197-0.8897018-0.5410004c-0.2534027-0.4906998-0.060997-1.0941963,0.4297028-1.347599  C99.2138977,53.6562996,99.5,53.1889992,99.5,53C99.5,52.4580002,99.9311981,51.9868011,100.4730988,51.9726982z   M94.7974014,49.5766983c0.1478958-0.5317993,0.6977005-0.8422966,1.230896-0.6967964  c1.1704025,0.3246994,2.171402,0.695797,2.9746017,1.1039963c0.4922028,0.2505035,0.6884995,0.8520012,0.4384995,1.3447037  c-0.176796,0.3471985-0.5278015,0.5468979-0.892601,0.5468979c-0.152298,0-0.3065948-0.0346985-0.452095-0.1083984  c-0.6846008-0.3482018-1.5601044-0.6709023-2.6026001-0.9595032C94.9618988,50.6601982,94.6499023,50.1088982,94.7974014,49.5766983  z M93.0253983,48.2168007c0.5438995,0.0946999,0.9082031,0.6123009,0.814003,1.1562004  c-0.0522995,0.3017998-0.2426987,0.5361977-0.4878006,0.6796989l-0.3564987-1.8408012  C93.0048981,48.2139015,93.0156021,48.2148018,93.0253983,48.2168007z M81.8130035,24.0331993  c0.6420975,0.2783012,1.3173981,0.4429016,2.0165939,0.4639015L84.0048981,24.5c0.7900009,0,1.5625-0.1791992,2.2661057-0.5034008  L88.2070007,34h-2.7313995C85.3467026,31.3955002,84.6977997,31,84,31s-1.3467026,0.3955002-1.4756012,3h-2.7045975  L81.8130035,24.0331993z M79.419899,36h3.1044998C82.6532974,38.6044998,83.3022003,39,84,39s1.3467026-0.3955002,1.4756012-3  h3.1185989l1.2583008,6.5h-11.732399L79.419899,36z M71.8871994,48.9033012  c0.9057999-0.2544022,1.9160004-0.4804001,3.0019989-0.6719017c0.0150986-0.0023994,0.0293045,0.0030022,0.0444031,0.0009995  L74.5112,50.3456993c-0.7401962,0.1469994-1.4481964,0.3052025-2.0830002,0.4834023  c-0.0907974,0.0253983-0.1816025,0.0375977-0.2709961,0.0375977c-0.4370041,0-0.8384018-0.2891006-0.9624023-0.7299995  C71.0454025,49.6049995,71.3554993,49.0527,71.8871994,48.9033012z M66.5005035,53.0238991  C66.5,51.8613014,67.3119965,50.8608017,68.9135971,50.0269012c0.4892044-0.2559013,1.0937042-0.0645027,1.3491058,0.4251976  c0.2548981,0.490303,0.0643997,1.0937996-0.4253006,1.3492012C68.7817001,52.3506012,68.5,52.8134995,68.5,53  c0,0.5522003-0.4473038,1.0141983-1,1.0141983c-0.5522003,0-0.9994965-0.4340973-0.9994965-0.9863968h1L66.5005035,53.0238991z   M32,46.5h24c0.3588982,0,0.6903992,0.1924019,0.8681984,0.5038986l4,7c0.2739029,0.4794998,0.1074028,1.0903015-0.372097,1.3642998  C60.3398018,55.4575005,60.1688995,55.5,60.0009995,55.5c-0.3471985,0-0.6846008-0.1806984-0.8691978-0.5038986L55.419899,48.5H32  c-0.5522003,0-1-0.4477997-1-1S31.4477997,46.5,32,46.5z M5.2016602,43.1669998  c0.8456998,6.6918983,1.9653296,14.4945984,2.8017597,20.3153992c0.4751005,3.3051987,0.8481398,5.8989029,1.0043898,7.142601  C9.07129,71.1304016,9.5019503,71.5,9.9985399,71.5c0.0419598,0,0.0839605-0.0024033,0.1264601-0.0077972  c0.5479002-0.0689011,0.9359999-0.5689011,0.8671999-1.1172028c-0.1571999-1.2494965-0.5318003-3.8554993-1.0087996-7.1772003  C9.1127901,57.142601,7.9345698,48.9370003,7.0820298,42.0884018c0.02002-0.0098,0.0380902-0.0205002,0.0581102-0.0303001  C9.2509804,41.0243988,11.4984999,40.5,13.8198004,40.5c3.7788,0,7.2455988,1.1820984,9.4751005,3.1708984  c0.0053997,0.0307999-0.0049,0.0610008,0.0033989,0.091301l8.6114006,36.9340973  c-2.8155003-2.266098-7.1519012-3.6864929-11.9272995-3.6864929c-5.6606007,0-10.6313305,2.0873947-13.4716606,5.219696  c0.0434604-9.669899-1.05127-26.4346008-4.4194298-36.3256989C2.49951,45.3690987,3.58057,44.2440987,5.2016602,43.1669998z"/><ellipse cx="10" cy="74" rx="1.5" ry="1.5146"/><text x="0" y="143" fill="#000000" font-size="5px" font-weight="bold" font-family="'Helvetica Neue', Helvetica, Arial-Unicode, Arial, Sans-serif">Created by priyanka</text><text x="0" y="148" fill="#000000" font-size="5px" font-weight="bold" font-family="'Helvetica Neue', Helvetica, Arial-Unicode, Arial, Sans-serif">from the Noun Project</text></svg>