<svg xmlns="http://www.w3.org/2000/svg" xmlns:xlink="http://www.w3.org/1999/xlink" xmlns:sketch="http://www.bohemiancoding.com/sketch/ns" viewBox="0 0 30 37.5" version="1.1" x="0px" y="0px"><title>weather_020-flood-disaster-house-forecast</title><desc>Created with Sketch.</desc><g stroke="none" stroke-width="1" fill="none" fill-rule="evenodd" sketch:type="MSPage"><g sketch:type="MSArtboardGroup" transform="translate(-360.000000, -90.000000)" fill="#000000"><path d="M380,97.1544786 L375.803356,94.1023739 C375.63218,93.9716716 375.389008,93.962473 375.205914,94.095632 L364.205914,102.095632 C363.982588,102.258051 363.933213,102.57076 364.095632,102.794086 C364.258051,103.017412 364.57076,103.066787 364.794086,102.904368 L366,102.02734 L366,110.949991 C364.85888,110.718356 364,109.709479 364,108.5 C364,108.223858 363.776142,108 363.5,108 C363.223858,108 363,108.223858 363,108.5 C363,110.432997 364.567003,112 366.5,112 C367.773163,112 368.887551,111.320209 369.5,110.303793 C370.112449,111.320209 371.226837,112 372.5,112 C373.773163,112 374.887551,111.320209 375.5,110.303793 C376.112449,111.320209 377.226837,112 378.5,112 C379.773163,112 380.887551,111.320209 381.5,110.303793 C382.112449,111.320209 383.226837,112 384.5,112 C386.432997,112 388,110.432997 388,108.5 C388,108.223858 387.776142,108 387.5,108 C387.223858,108 387,108.223858 387,108.5 C387,109.709479 386.14112,110.718356 385,110.949991 L385,102.02734 L386.205914,102.904368 C386.42924,103.066787 386.741949,103.017412 386.904368,102.794086 C387.066787,102.57076 387.017412,102.258051 386.794086,102.095632 L384,100.06357 L384,95.5 C384,95.2238576 383.776142,95 383.5,95 L380.5,95 C380.223858,95 380,95.2238576 380,95.5 L380,97.1544786 Z M381,97.8817513 L383,99.3362968 L383,96 L381,96 L381,97.8817513 Z M379,110.949991 C380.14112,110.718356 381,109.709479 381,108.5 C381,108.223858 381.223858,108 381.5,108 C381.776142,108 382,108.220001 382,108.5 C382,109.709479 382.85888,110.718356 384,110.949991 L384,101.300067 L375.5,95.1182487 L367,101.300067 L367,110.949991 C368.14112,110.718356 369,109.709479 369,108.5 C369,108.223858 369.223858,108 369.5,108 C369.776142,108 370,108.220001 370,108.5 C370,109.709479 370.85888,110.718356 372,110.949991 L372,104.5 C372,104.223858 372.223858,104 372.5,104 L378.5,104 C378.776142,104 379,104.223858 379,104.5 L379,110.949991 Z M378,110.949991 C376.85888,110.718356 376,109.709479 376,108.5 C376,108.223858 375.776142,108 375.5,108 C375.223858,108 375,108.220001 375,108.5 C375,109.709479 374.14112,110.718356 373,110.949991 L373,105 L378,105 L378,110.949991 Z M381.5,112 C381.223858,112 381,112.223858 381,112.5 C381,113.880712 379.880712,115 378.5,115 C377.119288,115 376,113.880712 376,112.5 C376,112.223858 375.776142,112 375.5,112 C375.223858,112 375,112.220001 375,112.5 C375,113.880712 373.880712,115 372.5,115 C371.119288,115 370,113.880712 370,112.5 C370,112.220001 369.776142,112 369.5,112 C369.223858,112 369,112.223858 369,112.5 C369,113.880712 367.880712,115 366.5,115 C365.119288,115 364,113.880712 364,112.5 C364,112.223858 363.776142,112 363.5,112 C363.223858,112 363,112.223858 363,112.5 C363,114.432997 364.567003,116 366.5,116 C367.773163,116 368.887551,115.320209 369.5,114.303793 C370.112449,115.320209 371.226837,116 372.5,116 C373.773163,116 374.887551,115.320209 375.5,114.303793 C376.112449,115.320209 377.226837,116 378.5,116 C379.773163,116 380.887551,115.320209 381.5,114.303793 C382.112449,115.320209 383.226837,116 384.5,116 C386.432997,116 388,114.432997 388,112.5 C388,112.223858 387.776142,112 387.5,112 C387.223858,112 387,112.223858 387,112.5 C387,113.880712 385.880712,115 384.5,115 C383.119288,115 382,113.880712 382,112.5 C382,112.220001 381.776142,112 381.5,112 Z" sketch:type="MSShapeGroup"/></g></g><text x="0" y="45" fill="#000000" font-size="5px" font-weight="bold" font-family="'Helvetica Neue', Helvetica, Arial-Unicode, Arial, Sans-serif">Created by Pham Thi Dieu Linh</text><text x="0" y="50" fill="#000000" font-size="5px" font-weight="bold" font-family="'Helvetica Neue', Helvetica, Arial-Unicode, Arial, Sans-serif">from the Noun Project</text></svg>