<?xml version="1.0" encoding="utf-8"?>
<svg id="master-artboard" viewBox="0 0 1400 980" version="1.1" xmlns="http://www.w3.org/2000/svg" x="0px" y="0px" style="enable-background:new 0 0 1400 980;" width="1400px" height="980px" xmlns:xlink="http://www.w3.org/1999/xlink"><g transform="matrix(0.5235042735042735, 0, 0, 0.5235042735042735, 105.29914062247303, -0.000004676672233472345)"><path d="M 0 0 H 2272 V 1872 H 0 V 0 Z" class="st0" style="fill: rgb(255, 255, 255);"/><g>
	<g>
		<g>
			<defs>
				<path id="SVGID_1_" d="M1361.2,581.8l-592.4-20.2l312.4-23.3c-384.3-17.1-861.8-16-880.8-14.6c24.7,5.1,66.1,13.6,66.1,13.6&#10;&#9;&#9;&#9;&#9;&#9;l-99.8,10.8l-23,69.3l402.6,29.9l-155.5,42l78.6,33.1l-272,20.3l-54.6,281l281.1-7.3l-50.6,19.7l53.6,21.3L192,1074.8&#10;&#9;&#9;&#9;&#9;&#9;l34.6,159.1l667.3-57.2l-346.7,59.1l79.7,23l820.5-11.9l-7.8-77.2l-149.2-30.7l135.6-7.5l-17-144.2l-255.8-33.2l248.7-27.3&#10;&#9;&#9;&#9;&#9;&#9;L1361.2,581.8z"/>
			</defs>
			<clipPath id="SVGID_2_">
				<use style="overflow:visible;" xlink:href="#SVGID_1_"/>
			</clipPath>
			<g class="st1" style="clip-path: url('#SVGID_2_');">
				<g>
					<g>
						<path d="M 1256 865.599976 H 1941.200012 V 1209.899963 H 1256 V 865.599976 Z" class="st2" style="fill: rgb(121, 163, 158);"/>
						<path d="M 1324.599976 905.200012 H 1941.099976 V 1209.800018 H 1324.599976 V 905.200012 Z" class="st3" style="fill: rgb(134, 181, 175);"/>
						<g>
							<g>
								<path d="M 1826.400024 862.200012 H 1861.000023 V 1209.800018 H 1826.400024 V 862.200012 Z" class="st4" style="fill: rgb(127, 76, 38);"/>
								<path d="M 1826.400024 890.900024 H 1848.800024 V 1209.900024 H 1826.400024 V 890.900024 Z" class="st5" style="fill: rgb(145, 97, 57);"/>
							</g>
							<g>
								<path d="M 1878.199951 862.200012 H 1912.79995 V 1209.800018 H 1878.199951 V 862.200012 Z" class="st2" style="fill: rgb(121, 163, 158);"/>
							</g>
						</g>
						<g>
							<path d="M 1971.199951171875 851.7999877929688 L 1256 851.7999877929688 L 1256 625.4000244140625 L 1923 625.4000244140625 Z" class="st6" style="fill: rgb(60, 106, 122);"/>
							<g>
								<path d="M 1924.300048828125 631.4000244140625 L 1256 631.4000244140625 L 1256 637.4000244140625 L 1925.5 637.4000244140625 Z" class="st7" style="fill: rgb(40, 97, 112);"/>
								<path d="M 1256 658.2999877929688 L 1930 658.2999877929688 L 1928.699951171875 652.2999877929688 L 1256 652.2999877929688 Z" class="st7" style="fill: rgb(40, 97, 112);"/>
								<path d="M 1256 679.2000122070312 L 1934.5 679.2000122070312 L 1933.199951171875 673.2000122070312 L 1256 673.2000122070312 Z" class="st7" style="fill: rgb(40, 97, 112);"/>
								<path d="M 1256 700.0999755859375 L 1938.9000244140625 700.0999755859375 L 1937.5999755859375 694.2000122070312 L 1256 694.2000122070312 Z" class="st7" style="fill: rgb(40, 97, 112);"/>
								<path d="M 1256 721.0999755859375 L 1943.4000244140625 721.0999755859375 L 1942.0999755859375 715.0999755859375 L 1256 715.0999755859375 Z" class="st7" style="fill: rgb(40, 97, 112);"/>
								<path d="M 1256 742 L 1947.800048828125 742 L 1946.5999755859375 736 L 1256 736 Z" class="st7" style="fill: rgb(40, 97, 112);"/>
								<path d="M 1256 762.9000244140625 L 1952.300048828125 762.9000244140625 L 1951 756.9000244140625 L 1256 756.9000244140625 Z" class="st7" style="fill: rgb(40, 97, 112);"/>
								<path d="M 1256 783.7999877929688 L 1956.699951171875 783.7999877929688 L 1955.5 777.7999877929688 L 1256 777.7999877929688 Z" class="st7" style="fill: rgb(40, 97, 112);"/>
								<path d="M 1256 804.7000122070312 L 1961.199951171875 804.7000122070312 L 1959.9000244140625 798.7000122070312 L 1256 798.7000122070312 Z" class="st7" style="fill: rgb(40, 97, 112);"/>
								<path d="M 1256 825.5999755859375 L 1965.699951171875 825.5999755859375 L 1964.4000244140625 819.7000122070312 L 1256 819.7000122070312 Z" class="st7" style="fill: rgb(40, 97, 112);"/>
								<path d="M 1256 846.5 L 1970.0999755859375 846.5 L 1968.800048828125 840.5999755859375 L 1256 840.5999755859375 Z" class="st7" style="fill: rgb(40, 97, 112);"/>
							</g>
							<path d="M 1256 851.799988 H 1971.200012 V 879.399988 H 1256 V 851.799988 Z" class="st8" style="fill: rgb(21, 76, 89);"/>
						</g>
						<g>
							<g>
								
									<path d="M 1492.900024 980.200012 H 1587.000023 V 1095.200012 H 1492.900024 V 980.200012 Z" transform="matrix(-1.836970e-16 1 -1 -1.836970e-16 2577.665 -502.2096)" class="st9" style="fill: rgb(254, 254, 252);"/>
							</g>
							<g>
								<path d="M 1489.900024 998.099976 H 1590.000023 V 1077.299973 H 1489.900024 V 998.099976 Z" class="st10" style="fill: rgb(136, 210, 244);"/>
							</g>
							<g>
								<g>
									<path d="M 1590 998.0999755859375 L 1580.5999755859375 998.0999755859375 L 1550.699951171875 1077.300048828125 L 1568.5999755859375 1077.300048828125 L 1590 1020.7000122070312 Z" class="st11" style="fill: rgb(167, 228, 249);"/>
								</g>
								<g>
									<path d="M 1529 998.0999755859375 L 1499.0999755859375 1077.300048828125 L 1532.699951171875 1077.300048828125 L 1562.699951171875 998.0999755859375 Z" class="st11" style="fill: rgb(167, 228, 249);"/>
								</g>
							</g>
						</g>
						<g>
							<g>
								
									<path d="M 1665.699951 980.200012 H 1759.79995 V 1095.200012 H 1665.699951 V 980.200012 Z" transform="matrix(-1.836970e-16 1 -1 -1.836970e-16 2750.4626 -675.0073)" class="st9" style="fill: rgb(254, 254, 252);"/>
							</g>
							<g>
								<path d="M 1662.699951 998.099976 H 1762.79995 V 1077.299973 H 1662.699951 V 998.099976 Z" class="st10" style="fill: rgb(136, 210, 244);"/>
							</g>
							<g>
								<g>
									<path d="M 1762.800048828125 998.0999755859375 L 1753.4000244140625 998.0999755859375 L 1723.5 1077.300048828125 L 1741.4000244140625 1077.300048828125 L 1762.800048828125 1020.7000122070312 Z" class="st11" style="fill: rgb(167, 228, 249);"/>
								</g>
								<g>
									<path d="M 1701.800048828125 998.0999755859375 L 1671.9000244140625 1077.300048828125 L 1705.5 1077.300048828125 L 1735.5 998.0999755859375 Z" class="st11" style="fill: rgb(167, 228, 249);"/>
								</g>
							</g>
						</g>
					</g>
					<path class="st12" d="M1152.7,625.4v254h169.6v-64.8h36v-33.1c-2.5-11.7-17.9-84-33.3-156.1H1152.7z" style="opacity: 0.3; fill: rgb(10, 64, 73);"/>
				</g>
				<g>
					<g>
						
							<path d="M 6.6 865.599976 H 691.800012 V 1209.899963 H 6.6 V 865.599976 Z" transform="matrix(-1 -4.489621e-11 4.489621e-11 -1 698.4048 2075.4553)" class="st2" style="fill: rgb(121, 163, 158);"/>
						
							<path d="M 6.6 905.200012 H 691.800012 V 1209.800018 H 6.6 V 905.200012 Z" transform="matrix(-1 -4.039892e-11 4.039892e-11 -1 698.4048 2115.0972)" class="st3" style="fill: rgb(134, 181, 175);"/>
						<g>
							<g>
								
									<path d="M 86.800003 862.200012 H 121.400002 V 1209.800018 H 86.800003 V 862.200012 Z" transform="matrix(-1 -4.489354e-11 4.489354e-11 -1 208.1806 2072.094)" class="st4" style="fill: rgb(127, 76, 38);"/>
								
									<path d="M 99 890.900024 H 121.4 V 1209.900024 H 99 V 890.900024 Z" transform="matrix(-1 -4.485136e-11 4.485136e-11 -1 220.3553 2100.7532)" class="st5" style="fill: rgb(145, 97, 57);"/>
							</g>
							<g>
								
									<path d="M 142.899994 862.200012 H 177.499992 V 1209.800018 H 142.899994 V 862.200012 Z" transform="matrix(-1 -4.494639e-11 4.494639e-11 -1 320.4556 2072.094)" class="st2" style="fill: rgb(121, 163, 158);"/>
							</g>
						</g>
						<g>
							<path d="M -23.5 851.7999877929688 L 691.7999877929688 851.7999877929688 L 691.7999877929688 625.4000244140625 L 24.799999237060547 625.4000244140625 Z" class="st6" style="fill: rgb(60, 106, 122);"/>
							<g>
								<path d="M 23.5 631.4000244140625 L 691.7999877929688 631.4000244140625 L 691.7999877929688 637.4000244140625 L 22.200000762939453 637.4000244140625 Z" class="st7" style="fill: rgb(40, 97, 112);"/>
								<path d="M 691.7999877929688 658.2999877929688 L 17.799999237060547 658.2999877929688 L 19 652.2999877929688 L 691.7999877929688 652.2999877929688 Z" class="st7" style="fill: rgb(40, 97, 112);"/>
								<path d="M 691.7999877929688 679.2000122070312 L 13.300000190734863 679.2000122070312 L 14.600000381469727 673.2000122070312 L 691.7999877929688 673.2000122070312 Z" class="st7" style="fill: rgb(40, 97, 112);"/>
								<path d="M 691.7999877929688 700.0999755859375 L 8.899999618530273 700.0999755859375 L 10.100000381469727 694.2000122070312 L 691.7999877929688 694.2000122070312 Z" class="st7" style="fill: rgb(40, 97, 112);"/>
								<path d="M 691.7999877929688 721.0999755859375 L 4.400000095367432 721.0999755859375 L 5.699999809265137 715.0999755859375 L 691.7999877929688 715.0999755859375 Z" class="st7" style="fill: rgb(40, 97, 112);"/>
								<path d="M 691.7999877929688 742 L -0.10000000149011612 742 L 1.2000000476837158 736 L 691.7999877929688 736 Z" class="st7" style="fill: rgb(40, 97, 112);"/>
								<path d="M 691.7999877929688 762.9000244140625 L -4.5 762.9000244140625 L -3.200000047683716 756.9000244140625 L 691.7999877929688 756.9000244140625 Z" class="st7" style="fill: rgb(40, 97, 112);"/>
								<path d="M 691.7999877929688 783.7999877929688 L -9 783.7999877929688 L -7.699999809265137 777.7999877929688 L 691.7999877929688 777.7999877929688 Z" class="st7" style="fill: rgb(40, 97, 112);"/>
								<path d="M 691.7999877929688 804.7000122070312 L -13.399999618530273 804.7000122070312 L -12.199999809265137 798.7000122070312 L 691.7999877929688 798.7000122070312 Z" class="st7" style="fill: rgb(40, 97, 112);"/>
								<path d="M 691.7999877929688 825.5999755859375 L -17.899999618530273 825.5999755859375 L -16.600000381469727 819.7000122070312 L 691.7999877929688 819.7000122070312 Z" class="st7" style="fill: rgb(40, 97, 112);"/>
								<path d="M 691.7999877929688 846.5 L -22.399999618530273 846.5 L -21.100000381469727 840.5999755859375 L 691.7999877929688 840.5999755859375 Z" class="st7" style="fill: rgb(40, 97, 112);"/>
							</g>
							
								<path d="M -23.5 851.799988 H 691.700012 V 879.399988 H -23.5 V 851.799988 Z" transform="matrix(-1 -4.489443e-11 4.489443e-11 -1 668.3136 1731.1853)" class="st8" style="fill: rgb(21, 76, 89);"/>
						</g>
						<g>
							<g>
								
									<path d="M 360.799988 980.200012 H 454.899986 V 1095.200012 H 360.799988 V 980.200012 Z" transform="matrix(-4.489583e-11 1 -1 -4.489583e-11 1445.5513 629.9042)" class="st9" style="fill: rgb(254, 254, 252);"/>
							</g>
							<g>
								
									<path d="M 357.799988 998.099976 H 457.899986 V 1077.299973 H 357.799988 V 998.099976 Z" transform="matrix(-1 -4.488644e-11 4.488644e-11 -1 815.6471 2075.4553)" class="st10" style="fill: rgb(136, 210, 244);"/>
							</g>
							<g>
								<g>
									<path d="M 357.79998779296875 998.0999755859375 L 367.20001220703125 998.0999755859375 L 397.1000061035156 1077.300048828125 L 379.20001220703125 1077.300048828125 L 357.79998779296875 1020.7000122070312 Z" class="st11" style="fill: rgb(167, 228, 249);"/>
								</g>
								<g>
									<path d="M 418.70001220703125 998.0999755859375 L 448.6000061035156 1077.300048828125 L 415 1077.300048828125 L 385.1000061035156 998.0999755859375 Z" class="st11" style="fill: rgb(167, 228, 249);"/>
								</g>
							</g>
						</g>
						<g>
							<g>
								
									<path d="M 188 980.200012 H 282.099998 V 1095.200012 H 188 V 980.200012 Z" transform="matrix(-4.488606e-11 1 -1 -4.488606e-11 1272.7535 802.7018)" class="st9" style="fill: rgb(254, 254, 252);"/>
							</g>
							<g>
								
									<path d="M 185 998.099976 H 285.099998 V 1077.299973 H 185 V 998.099976 Z" transform="matrix(-1 -4.492285e-11 4.492285e-11 -1 470.0516 2075.4553)" class="st10" style="fill: rgb(136, 210, 244);"/>
							</g>
							<g>
								<g>
									<path d="M 185 998.0999755859375 L 194.39999389648438 998.0999755859375 L 224.3000030517578 1077.300048828125 L 206.39999389648438 1077.300048828125 L 185 1020.7000122070312 Z" class="st11" style="fill: rgb(167, 228, 249);"/>
								</g>
								<g>
									<path d="M 245.89999389648438 998.0999755859375 L 275.79998779296875 1077.300048828125 L 242.1999969482422 1077.300048828125 L 212.3000030517578 998.0999755859375 Z" class="st11" style="fill: rgb(167, 228, 249);"/>
								</g>
							</g>
						</g>
					</g>
				</g>
				<g>
					<path d="M 657.900024 798.099976 H 1290 V 1209.899963 H 657.900024 V 798.099976 Z" class="st13" style="fill: rgb(146, 188, 184);"/>
					<path d="M 657.900024 798.099976 H 1290 V 841.799976 H 657.900024 V 798.099976 Z" class="st2" style="fill: rgb(121, 163, 158);"/>
					<g>
						<g>
							<path d="M 1152.699951 794 H 1193.99995 V 1209.799988 H 1152.699951 V 794 Z" class="st4" style="fill: rgb(127, 76, 38);"/>
							<path d="M 1152.699951 828.299988 H 1179.49995 V 1209.899994 H 1152.699951 V 828.299988 Z" class="st5" style="fill: rgb(145, 97, 57);"/>
						</g>
						<g>
							<path d="M 753.799988 794 H 795.099987 V 1209.799988 H 753.799988 V 794 Z" class="st4" style="fill: rgb(127, 76, 38);"/>
							<path d="M 1214.599976 794 H 1255.899975 V 1209.799988 H 1214.599976 V 794 Z" class="st2" style="fill: rgb(121, 163, 158);"/>
							<path d="M 815.700012 794 H 857.000011 V 1209.799988 H 815.700012 V 794 Z" class="st2" style="fill: rgb(121, 163, 158);"/>
							<path d="M 753.799988 828.299988 H 780.599987 V 1209.899994 H 753.799988 V 828.299988 Z" class="st5" style="fill: rgb(145, 97, 57);"/>
						</g>
					</g>
					<g>
						<path d="M 1326 781.5 L 621.9000244140625 781.5 L 679.5999755859375 510.79998779296875 L 1268.300048828125 510.79998779296875 Z" class="st6" style="fill: rgb(60, 106, 122);"/>
						<g>
							<path d="M 1269.800048828125 517.9000244140625 L 678.0999755859375 517.9000244140625 L 676.5 525.0999755859375 L 1271.300048828125 525.0999755859375 Z" class="st7" style="fill: rgb(40, 97, 112);"/>
							<path d="M 671.2000122070312 550.0999755859375 L 1276.5999755859375 550.0999755859375 L 1275.0999755859375 542.9000244140625 L 672.7000122070312 542.9000244140625 Z" class="st7" style="fill: rgb(40, 97, 112);"/>
							<path d="M 665.9000244140625 575.0999755859375 L 1282 575.0999755859375 L 1280.5 568 L 667.4000244140625 568 Z" class="st7" style="fill: rgb(40, 97, 112);"/>
							<path d="M 660.5 600.0999755859375 L 1287.300048828125 600.0999755859375 L 1285.800048828125 593 L 662.0999755859375 593 Z" class="st7" style="fill: rgb(40, 97, 112);"/>
							<path d="M 655.2000122070312 625.2000122070312 L 1292.5999755859375 625.2000122070312 L 1291.0999755859375 618 L 656.7000122070312 618 Z" class="st7" style="fill: rgb(40, 97, 112);"/>
							<path d="M 649.9000244140625 650.2000122070312 L 1298 650.2000122070312 L 1296.5 643 L 651.4000244140625 643 Z" class="st7" style="fill: rgb(40, 97, 112);"/>
							<path d="M 644.5 675.2000122070312 L 1303.300048828125 675.2000122070312 L 1301.800048828125 668 L 646.0999755859375 668 Z" class="st7" style="fill: rgb(40, 97, 112);"/>
							<path d="M 639.2000122070312 700.2000122070312 L 1308.5999755859375 700.2000122070312 L 1307.0999755859375 693.0999755859375 L 640.7000122070312 693.0999755859375 Z" class="st7" style="fill: rgb(40, 97, 112);"/>
							<path d="M 633.9000244140625 725.2000122070312 L 1314 725.2000122070312 L 1312.5 718.0999755859375 L 635.4000244140625 718.0999755859375 Z" class="st7" style="fill: rgb(40, 97, 112);"/>
							<path d="M 628.5 750.2000122070312 L 1319.300048828125 750.2000122070312 L 1317.800048828125 743.0999755859375 L 630.0999755859375 743.0999755859375 Z" class="st7" style="fill: rgb(40, 97, 112);"/>
							<path d="M 623.2000122070312 775.2999877929688 L 1324.5999755859375 775.2999877929688 L 1323.0999755859375 768.0999755859375 L 624.7000122070312 768.0999755859375 Z" class="st7" style="fill: rgb(40, 97, 112);"/>
						</g>
						<path d="M 621.900024 781.5 H 1326 V 814.599998 H 621.900024 V 781.5 Z" class="st8" style="fill: rgb(21, 76, 89);"/>
					</g>
					<path d="M 1055.800048828125 586.0999755859375 L 1113 604.7000122070312 L 1174.5 740.7000122070312 L 870.5 726.0999755859375 Z" class="st12" style="opacity: 0.3; fill: rgb(10, 64, 73);"/>
					<g>
						<g>
							<g>
								<path d="M 1070 726.0999755859375 L 870.5 726.0999755859375 L 870.5 575 L 972.0999755859375 468.20001220703125 L 1070 575 Z" class="st13" style="fill: rgb(146, 188, 184);"/>
							</g>
							<g>
								<path class="st2" d="M990.4,488.2l-18.3-20l-101.9,107c0.1,8.3,0.2,22.4,0.3,45.1L990.4,488.2z" style="fill: rgb(121, 163, 158);"/>
							</g>
							<g>
								<path d="M 1095.199951171875 620.9000244140625 L 972.0999755859375 485.79998779296875 L 852.7000122070312 616.9000244140625 L 834.9000244140625 600.5999755859375 L 972.0999755859375 450 L 1113 604.7000122070312 Z" class="st8" style="fill: rgb(21, 76, 89);"/>
							</g>
						</g>
						<g>
							
								<path d="M 913.700012 576 H 1026.300011 V 713.600006 H 913.700012 V 576 Z" transform="matrix(-1.836970e-16 1 -1 -1.836970e-16 1614.762 -325.1399)" class="st9" style="fill: rgb(254, 254, 252);"/>
						</g>
						<g>
							<path d="M 910.099976 597.5 H 1029.799973 V 692.199997 H 910.099976 V 597.5 Z" class="st10" style="fill: rgb(136, 210, 244);"/>
						</g>
						<g>
							<g>
								<path d="M 1029.800048828125 597.5 L 1018.5999755859375 597.5 L 982.7999877929688 692.2000122070312 L 1004.2000122070312 692.2000122070312 L 1029.800048828125 624.5 Z" class="st11" style="fill: rgb(167, 228, 249);"/>
							</g>
							<g>
								<path d="M 956.9000244140625 597.5 L 921.0999755859375 692.2000122070312 L 961.2999877929688 692.2000122070312 L 997.0999755859375 597.5 Z" class="st11" style="fill: rgb(167, 228, 249);"/>
							</g>
						</g>
					</g>
					<path d="M 889.700012 951.900024 H 1058.200012 V 1209.800018 H 889.700012 V 951.900024 Z" class="st4" style="fill: rgb(127, 76, 38);"/>
					
						<path d="M 858.400024 1010 H 1089.500031 V 1151.699997 H 858.400024 V 1010 Z" transform="matrix(-1.836970e-16 1 -1 -1.836970e-16 2054.8323 106.9803)" class="st5" style="fill: rgb(145, 97, 57);"/>
					<path d="M 1052.300048828125 1073.9000244140625 L 980.5999755859375 1073.9000244140625 L 980.5999755859375 957.4000244140625 L 967.2000122070312 957.4000244140625 L 967.2000122070312 1073.9000244140625 L 895.5 1073.9000244140625 L 895.5 1087.300048828125 L 967.2000122070312 1087.300048828125 L 967.2000122070312 1203.9000244140625 L 980.5999755859375 1203.9000244140625 L 980.5999755859375 1087.300048828125 L 1052.300048828125 1087.300048828125 Z" class="st4" style="fill: rgb(127, 76, 38);"/>
					<path d="M 1014.299988 1061.900024 H 1031.299988 V 1108.900024 H 1014.299988 V 1061.900024 Z" class="st14" style="fill: rgb(112, 60, 25);"/>
				</g>
			</g>
		</g>
		<g>
			<g>
				<path class="st15" d="M1869.2,832.2c0.2,10.6-8.3,19.3-18.9,19.5l-195.3,3c-7.3,0.1-14-3.9-17.4-10.4l-164.3-317.3l-98.6,1.5&#10;&#9;&#9;&#9;&#9;&#9;l1.1,69.3c0.2,10.6-8.3,19.3-18.9,19.5c-10.6,0.2-19.3-8.3-19.5-18.9l-1.4-88.5c-0.2-10.6,8.3-19.3,18.9-19.5l129.7-2&#10;&#9;&#9;&#9;&#9;&#9;c7.3-0.1,14,3.9,17.4,10.4l164.3,317.3l183.4-2.8C1860.3,813.2,1869,821.6,1869.2,832.2z" style="fill: rgb(197, 203, 216);"/>
			</g>
			<path class="st16" d="M1286.7,814.3l6.5,419.2c0.2,15.5,13,27.9,28.5,27.7l90.3-1.4c15.5-0.2,27.9-13,27.7-28.5l-6.5-418.8&#10;&#9;&#9;&#9;&#9;L1286.7,814.3z" style="fill: rgb(89, 155, 144);"/>
			<path class="st17" d="M1286.7,814.3l6.5,419.2c0.2,15.5,13,27.9,28.5,27.7l72.2-1.1l-10.9-447L1286.7,814.3z" style="fill: rgb(117, 170, 163);"/>
			<path class="st18" d="M1429.7,584.4c-0.2-15.5-13-27.9-28.5-27.7l-90.3,1.4c-15.5,0.2-27.9,13-27.7,28.5l3.5,227.7l146.5-1.9&#10;&#9;&#9;&#9;&#9;L1429.7,584.4z" style="fill: rgb(36, 94, 107);"/>
			<path class="st19" d="M1310.8,558.1c-15.5,0.2-27.9,13-27.7,28.5l3.5,227.7l96.4-1.3l-6.2-256L1310.8,558.1z" style="fill: rgb(48, 100, 114);"/>
			<path class="st20" d="M2128.3,802.9l0.8,50.6c0.3,19-14.9,34.7-33.9,35l-320.9,5c-19,0.3-34.7-14.9-35-33.9l-0.8-50.6&#10;&#9;&#9;&#9;&#9;c-0.3-19,14.9-34.7,33.9-35l320.9-5C2112.3,768.7,2128,783.9,2128.3,802.9z" style="fill: rgb(221, 69, 54);"/>
			<path class="st21" d="M2128.3,802.9c-0.3-19-16-34.2-35-33.9l-320.9,5c-19,0.3-34.2,16-33.9,35l0.8,50.6c0,1.1,0.1,2.1,0.2,3.1&#10;&#9;&#9;&#9;&#9;l389-43.6L2128.3,802.9z" style="fill: rgb(229, 94, 72);"/>
		</g>
	</g>
	<text transform="matrix(1 0 0 1 289.9053 1351.3085)" class="st17 st22 st23" style="white-space: pre;  fill: rgb(117, 170, 163);  font-family: 'BarlowSemiCondensed-SemiBoldItalic';  font-size: 153.097px; ;  font-weight: BarlowSemiCondensed-SemiBoldItalic">Home Renovation</text>
</g></g></svg>