<svg xmlns="http://www.w3.org/2000/svg" xmlns:xlink="http://www.w3.org/1999/xlink" xml:space="preserve" version="1.1" style="shape-rendering:geometricPrecision;text-rendering:geometricPrecision;image-rendering:optimizeQuality;" viewBox="0 0 249 346.25" x="0px" y="0px" fill-rule="evenodd" clip-rule="evenodd"><defs><style type="text/css">
   
    .fil0 {fill:black}
    .fil1 {fill:black;fill-rule:nonzero}
   
  </style></defs><g><path class="fil0" d="M170 124c-11,4 -23,7 -35,11 0,7 0,14 0,21 12,-4 24,-8 35,-11 0,-7 0,-14 0,-21z"/><path class="fil0" d="M122 189l0 -69 -8 3 0 66 -92 -40 0 -59 -6 -3 0 66 101 44 5 -1 56 -18c21,-6 40,-12 61,-18 0,-26 0,-52 0,-77l-7 2c0,23 0,47 0,70 -7,2 -11,4 -18,6 0,-17 0,-34 0,-50 -10,3 -20,6 -30,9 0,17 0,33 0,50 -11,3 -21,6 -31,10l-31 9z"/><path class="fil0" d="M108 121c13,-13 25,-26 38,-39 10,-11 19,-20 30,-31 21,9 41,17 63,26l0 0 10 -4 0 0c-58,-24 -117,-49 -175,-73 -24,25 -49,50 -74,75l108 46z"/><path class="fil1" d="M162 196c0,-9 13,-9 13,0l0 4 0 0c9,-3 12,10 4,12l-4 2 0 23c9,-3 12,10 4,12l-4 2 0 6c0,8 -13,8 -13,0l0 -2 -11 3 0 5c0,9 -14,9 -14,0l0 -1 -11 3 0 5c0,9 -13,9 -13,0l0 -6 -11 -4 0 0c0,4 -3,7 -6,7 -4,0 -7,-3 -7,-7l0 -6 -10 -5 0 1c0,9 -14,9 -14,0l0 -6 -10 -5 0 2c0,8 -14,8 -14,0l0 -8 -10 -4 0 2c0,9 -14,9 -14,0l0 -8 -1 -1c-3,-1 -4,-5 -3,-8 1,-2 3,-4 4,-4l0 -24 -1 0c-5,-3 -5,-11 1,-13l0 -3c0,-9 14,-9 14,0l0 7 10 5 0 -2c0,-9 14,-9 14,0l0 8 10 4 0 -2c0,-9 14,-9 14,0l0 8 10 5 0 -3c0,-9 13,-9 13,0l0 8 11 5 0 -3c0,-9 13,-9 13,0l0 5 11 -4 0 -8c0,-9 14,-9 14,0l0 4 11 -3 0 -8zm-131 -4l0 22 10 5 0 -23 -10 -4zm24 10l0 23 10 4 0 -22 -10 -5zm24 11l0 22 10 5 0 -23 -10 -4zm23 10l0 22 11 5 0 -22 -11 -5zm24 6l0 23 11 -4 0 -23 -11 4zm25 -8l0 23 11 -3 0 -23 -11 3z"/></g><text x="0" y="292" fill="#000000" font-size="5px" font-weight="bold" font-family="'Helvetica Neue', Helvetica, Arial-Unicode, Arial, Sans-serif">Created by Claudia Revalina</text><text x="0" y="297" fill="#000000" font-size="5px" font-weight="bold" font-family="'Helvetica Neue', Helvetica, Arial-Unicode, Arial, Sans-serif">from the Noun Project</text></svg>