<svg xmlns="http://www.w3.org/2000/svg" xmlns:xlink="http://www.w3.org/1999/xlink" version="1.1" x="0px" y="0px" viewBox="0 0 100 125" enable-background="new 0 0 100 100" xml:space="preserve"><path d="M36.634,90.648H9.241V71.336l13.696-11.794l13.697,11.794V90.648z M10.683,89.207h24.509v-17.21L22.938,61.444  L10.683,71.997V89.207z"/><path d="M65.407,40.898H38.014V21.585L51.71,9.792l13.697,11.794V40.898z M39.456,39.457h24.509v-17.21L51.71,11.694L39.456,22.247  V39.457z"/><path d="M92.483,90.648H65.09V71.336l13.696-11.794l13.697,11.794V90.648z M66.532,89.207h24.509v-17.21L78.786,61.444  L66.532,71.997V89.207z"/><path d="M44.696,79.917c0,0.599-0.485,1.083-1.084,1.083s-1.083-0.485-1.083-1.083s0.484-1.083,1.083-1.083  S44.696,79.318,44.696,79.917z M50.862,78.833c-0.599,0-1.084,0.485-1.084,1.083S50.264,81,50.862,81s1.083-0.485,1.083-1.083  S51.461,78.833,50.862,78.833z M58.111,78.833c-0.599,0-1.083,0.485-1.083,1.083S57.513,81,58.111,81s1.084-0.485,1.084-1.083  S58.71,78.833,58.111,78.833z"/><path d="M64.856,46.723c-0.423,0.423-1.109,0.423-1.532,0c-0.424-0.423-0.424-1.109,0-1.532c0.423-0.423,1.109-0.423,1.532,0  C65.279,45.614,65.279,46.3,64.856,46.723z M69.982,50.317c-0.423-0.423-1.109-0.423-1.532,0s-0.423,1.109,0,1.532  s1.109,0.423,1.532,0S70.405,50.74,69.982,50.317z M75.108,55.443c-0.423-0.423-1.109-0.423-1.532,0s-0.423,1.109,0,1.532  c0.423,0.423,1.109,0.423,1.532,0C75.531,56.552,75.531,55.866,75.108,55.443z"/><path d="M37.577,46.724c-0.423-0.423-0.423-1.109,0-1.532c0.423-0.424,1.109-0.424,1.532,0c0.423,0.423,0.423,1.109,0,1.532  C38.687,47.146,38,47.146,37.577,46.724z M33.983,51.85c0.423-0.423,0.423-1.109,0-1.532s-1.109-0.423-1.532,0s-0.423,1.109,0,1.532  S33.56,52.273,33.983,51.85z M28.857,56.976c0.423-0.423,0.423-1.109,0-1.532s-1.109-0.423-1.532,0  c-0.423,0.423-0.423,1.109,0,1.532C27.748,57.399,28.434,57.399,28.857,56.976z"/><text x="0" y="115" fill="#000000" font-size="5px" font-weight="bold" font-family="'Helvetica Neue', Helvetica, Arial-Unicode, Arial, Sans-serif">Created by Seona  Kim</text><text x="0" y="120" fill="#000000" font-size="5px" font-weight="bold" font-family="'Helvetica Neue', Helvetica, Arial-Unicode, Arial, Sans-serif">from the Noun Project</text></svg>