<svg xmlns="http://www.w3.org/2000/svg" xmlns:xlink="http://www.w3.org/1999/xlink" version="1.1" x="0px" y="0px" viewBox="0 0 100 125" enable-background="new 0 0 100 100" xml:space="preserve"><path d="M57.28,27.445c0,3.952-3.193,7.155-7.146,7.155c-3.952,0-7.145-3.203-7.145-7.155c0-3.942,3.193-7.14,7.145-7.14  C54.087,20.305,57.28,23.503,57.28,27.445z"/><path d="M57.28,75.832c0,3.942-3.193,7.141-7.146,7.141c-3.952,0-7.145-3.198-7.145-7.141c0-3.951,3.193-7.154,7.145-7.154  C54.087,68.678,57.28,71.881,57.28,75.832z"/><path d="M74.323,58.779c-3.951,0-7.149-3.198-7.149-7.141c0-3.952,3.198-7.14,7.149-7.14c3.947,0,7.146,3.188,7.146,7.14  C81.469,55.581,78.271,58.779,74.323,58.779z"/><path d="M25.946,58.779c-3.947,0-7.145-3.198-7.145-7.141c0-3.952,3.198-7.14,7.145-7.14s7.15,3.188,7.15,7.14  C33.096,55.581,29.893,58.779,25.946,58.779z"/><path d="M72.29,39.585c-2.793,2.797-7.31,2.797-10.102,0c-2.798-2.792-2.798-7.31,0-10.102c2.792-2.792,7.309-2.792,10.102,0  C75.082,32.276,75.082,36.793,72.29,39.585z"/><path d="M38.082,73.794c-2.792,2.792-7.314,2.792-10.102,0c-2.792-2.793-2.792-7.319,0-10.102c2.788-2.798,7.31-2.798,10.102,0  C40.878,66.475,40.878,71.001,38.082,73.794z"/><path d="M62.188,73.794c-2.798-2.793-2.798-7.319,0-10.102c2.792-2.798,7.309-2.798,10.102,0c2.792,2.782,2.792,7.309,0,10.102  C69.497,76.586,64.98,76.586,62.188,73.794z"/><path d="M27.979,39.585c-2.792-2.792-2.792-7.31,0-10.102c2.788-2.792,7.31-2.792,10.102,0c2.797,2.792,2.797,7.31,0,10.102  C35.289,42.382,30.767,42.382,27.979,39.585z"/><text x="0" y="115" fill="#000000" font-size="5px" font-weight="bold" font-family="'Helvetica Neue', Helvetica, Arial-Unicode, Arial, Sans-serif">Created by Gijs Vos</text><text x="0" y="120" fill="#000000" font-size="5px" font-weight="bold" font-family="'Helvetica Neue', Helvetica, Arial-Unicode, Arial, Sans-serif">from the Noun Project</text></svg>