<svg xmlns="http://www.w3.org/2000/svg" xmlns:xlink="http://www.w3.org/1999/xlink" version="1.1" x="0px" y="0px" viewBox="0 0 64 80" enable-background="new 0 0 64 64" xml:space="preserve"><g><g><path fill="#000000" d="M35.698,23.242c0.067,0.055,0.137,0.107,0.207,0.16c0.415,0.304,0.866,0.561,1.349,0.761    c0.031,0.015,0.064,0.027,0.096,0.042C36.788,23.821,36.237,23.504,35.698,23.242z"/><path fill="#000000" d="M25.357,24.241c0.002,0,0.005-0.002,0.007-0.004c0.644-0.246,1.239-0.592,1.765-1.019    c0.051-0.04,0.1-0.084,0.149-0.127C26.494,23.457,25.847,23.875,25.357,24.241z"/><path fill="#000000" d="M34.388,36.546c-0.661,0.763-1.5,1.163-2.877,1.147c-0.641-0.015-1.461-0.417-2.097-1.174    c-0.391-0.464-0.359-1.005,0.036-1.352c0.393-0.348,0.923-0.297,1.345,0.131c0.743,0.748,1.478,0.755,2.213,0.024    c0.439-0.439,0.946-0.501,1.345-0.164C34.777,35.516,34.808,36.06,34.388,36.546z"/><path fill="#000000" d="M34.375,45.845c-0.657,0.746-1.502,1.101-2.472,1.15c-0.999-0.058-1.836-0.433-2.483-1.187    c-0.393-0.457-0.373-0.996,0.018-1.358c0.406-0.375,0.892-0.337,1.341,0.106c0.781,0.77,1.478,0.774,2.251,0.015    c0.459-0.45,0.926-0.493,1.338-0.12C34.788,44.828,34.797,45.366,34.375,45.845z"/><path fill="#000000" d="M41.87,36.459c-0.515,0.728-1.549,1.232-2.535,1.238c-1.043,0.005-1.889-0.42-2.544-1.214    c-0.371-0.451-0.331-0.954,0.058-1.307c0.377-0.34,0.914-0.311,1.316,0.069c0.883,0.834,1.434,0.835,2.315,0.004    c0.404-0.382,0.941-0.408,1.314-0.064C42.147,35.509,42.178,36.026,41.87,36.459z"/><path fill="#000000" d="M26.906,36.636c-0.65,0.684-1.44,1.072-2.401,1.061c-0.961,0.009-1.751-0.379-2.402-1.059    c-0.457-0.475-0.48-1.065-0.089-1.443c0.4-0.386,0.939-0.326,1.42,0.158c0.666,0.672,1.456,0.668,2.139-0.005    c0.486-0.482,1.017-0.535,1.423-0.14C27.414,35.615,27.39,36.124,26.906,36.636z"/><path fill="#000000" d="M29.772,41.173c-0.657,0.763-1.502,1.156-2.555,1.176c-0.972-0.04-1.811-0.44-2.457-1.218    c-0.375-0.453-0.322-1.016,0.084-1.35c0.395-0.322,0.895-0.271,1.307,0.138c0.779,0.772,1.48,0.777,2.244,0.018    c0.424-0.419,0.968-0.468,1.349-0.12C30.131,40.17,30.16,40.723,29.772,41.173z"/><path fill="#000000" d="M38.086,41.186c-0.652,0.746-1.476,1.134-2.468,1.163c-1.017-0.025-1.851-0.433-2.508-1.199    c-0.386-0.448-0.357-0.999,0.045-1.35c0.382-0.333,0.908-0.295,1.312,0.096c0.835,0.81,1.447,0.814,2.275,0.016    c0.417-0.4,0.985-0.433,1.358-0.078C38.483,40.197,38.485,40.731,38.086,41.186z"/><path fill="#000000" d="M38.563,25.12c-0.013-0.015-0.027-0.025-0.042-0.038c-0.322-0.264-0.641-0.508-0.956-0.73    c-0.004-0.002-0.005-0.004-0.007-0.004c-0.069-0.051-0.137-0.098-0.206-0.144h-0.002c-0.562-0.384-1.114-0.701-1.653-0.963    c-0.213-0.104-0.426-0.198-0.635-0.284c-2.672-1.105-4.985-0.854-6.643-0.317c-0.004,0.002-0.005,0.004-0.009,0.004    c-0.404,0.131-0.781,0.284-1.132,0.446c-0.784,0.366-1.432,0.784-1.922,1.15c-0.02,0.016-0.036,0.029-0.055,0.04    c-0.022,0.016-0.044,0.033-0.066,0.049c-0.249,0.193-0.451,0.366-0.602,0.504c-0.207,0.187-0.322,0.309-0.339,0.328    c-0.326,0.351-0.306,0.901,0.046,1.229c0.351,0.326,0.901,0.306,1.229-0.045c0.007-0.009,0.466-0.497,1.283-1.032    c-0.064,0.298,0.038,0.706,0.209,0.974c1.116,1.733,2.271,3.44,3.414,5.154c0.573,0.863,1.258,0.868,1.831,0.011    c1.105-1.654,2.204-3.311,3.303-4.969c0.12-0.18,0.257-0.357,0.335-0.555c0.073-0.187,0.093-0.364,0.064-0.528    c0.47,0.297,0.939,0.637,1.407,1.023c0.162,0.133,0.357,0.198,0.551,0.198c0.251,0,0.501-0.107,0.672-0.317    C38.932,25.95,38.896,25.43,38.563,25.12z M34.149,25.35c-0.905,1.352-1.807,2.705-2.75,4.113    c-0.138-0.198-0.244-0.344-0.344-0.493c-0.841-1.263-1.682-2.528-2.521-3.793c-0.045-0.067-0.093-0.133-0.146-0.191    c-0.122-0.138-0.264-0.248-0.422-0.297c0.304-0.144,0.632-0.277,0.983-0.391c1.926-0.626,3.877-0.484,5.824,0.424    c-0.102,0.046-0.202,0.111-0.298,0.198c-0.047,0.044-0.091,0.091-0.131,0.144C34.275,25.155,34.213,25.255,34.149,25.35z"/><path fill="#000000" d="M56.248,29.09c0,0-0.351-3.615-3.666-5.851c-0.1-0.784-0.171-1.56-0.171-2.346    c0-0.382,0.02-0.755,0.051-1.148c0.171-1.893,0.573-3.635,1.188-5.185c0.795-1.973,1.278-4.19,1.511-6.978    c0.08-0.877,0.12-1.753,0.16-2.608c0.02-0.424,0.04-0.857,0.071-1.279c0.08-1.5-0.684-2.186-1.329-2.488    c-0.313-0.151-0.624-0.22-0.948-0.22c-0.764,0-1.298,0.402-1.651,0.664l-0.031,0.02c-0.684,0.524-1.38,1.037-2.064,1.551    c-1.36,1.017-2.748,2.064-4.128,3.112c-3.787-0.977-7.775-1.522-11.863-1.622v-0.02h-1.46L30.56,4.7v0.011    c-4.09,0.1-8.066,0.644-11.863,1.622c-1.369-1.048-2.77-2.095-4.119-3.112c-0.695-0.513-1.38-1.026-2.075-1.551l-0.02-0.02    c-0.351-0.262-0.886-0.664-1.651-0.664c-0.322,0-0.644,0.069-0.946,0.22c-0.655,0.302-1.42,0.988-1.33,2.488    c0.02,0.422,0.042,0.855,0.062,1.279c0.04,0.855,0.08,1.731,0.16,2.608c0.242,2.788,0.724,5.005,1.511,6.978    c0.624,1.551,1.017,3.292,1.188,5.185c0.111,1.219,0.031,2.368-0.131,3.534c-3.243,2.246-3.595,5.811-3.595,5.811    c-1.088,3.615-0.444,9.204-0.444,9.204c0.977,10.321,6.809,15.297,6.809,15.297c0.22,0.171,0.422,0.28,0.604,0.331    c1.187,1.32,2.768,2.537,4.894,3.183v-0.022l0.976,0.262c0,0.011,0,0.011,0,0.02c0,3.112,2.528,5.649,5.649,5.649    c2.448,0,4.543-1.571,5.318-3.755c0.784,2.184,2.868,3.755,5.325,3.755c3.072,0,5.569-2.466,5.649-5.518l1.633-0.342    c2.195-0.624,3.826-1.873,5.045-3.212c0.2-0.04,0.422-0.151,0.673-0.351c0,0,5.831-4.976,6.809-15.297    C56.692,38.294,57.337,32.704,56.248,29.09z M26.24,60.407c-1.682,0-3.041-1.36-3.041-3.041c0-1.682,1.36-3.041,3.041-3.041    c1.673,0,3.041,1.36,3.041,3.041C29.281,59.047,27.912,60.407,26.24,60.407z M36.883,60.407c-1.682,0-3.039-1.36-3.039-3.041    c0-1.682,1.358-3.041,3.039-3.041c1.673,0,3.041,1.36,3.041,3.041C39.924,59.047,38.556,60.407,36.883,60.407z M49.763,19.504    c-0.131,1.44-0.04,2.768,0.131,4.068c-1.42,0.433-3.121,1.38-4.321,3.434c0,0-2.97,2.768-1.429,12.356    c0,0,0.755,6.616,2.617,11.146l0.595,1.421c-0.977,1.127-2.015,1.893-3.192,2.366c0,0-1.42,0.755-2.055,0.926    c-0.855-2.055-2.87-3.505-5.227-3.505c-2.457,0-4.541,1.573-5.325,3.757c-0.775-2.184-2.87-3.757-5.318-3.757    c-2.315,0-4.31,1.4-5.185,3.394c-0.997-0.464-1.44-0.886-1.44-0.886c-1.099-0.473-2.075-1.208-2.981-2.246l0.604-1.471    c1.862-4.53,2.617-11.146,2.617-11.146c1.542-9.588-1.429-12.356-1.429-12.356c-1.219-2.075-2.941-3.021-4.372-3.445    c0.171-1.298,0.262-2.628,0.131-4.057c-0.191-2.155-0.653-4.159-1.369-5.951c-0.695-1.722-1.117-3.696-1.33-6.214    c-0.069-0.815-0.109-1.673-0.151-2.497c-0.009-0.222-0.029-0.453-0.04-0.684c0.555,0.411,1.097,0.824,1.653,1.238    c1.4,1.048,2.839,2.135,4.25,3.203c0.433,0.331,0.875,0.482,1.38,0.482c0.211,0,0.433-0.029,0.673-0.091    c4.019-1.037,8.288-1.571,12.669-1.58h0.1c4.39,0.009,8.651,0.542,12.678,1.58c0.242,0.062,0.462,0.091,0.675,0.091    c0.493,0,0.946-0.151,1.369-0.482c1.411-1.068,2.859-2.155,4.25-3.203c0.553-0.413,1.108-0.826,1.651-1.238    c-0.009,0.231-0.02,0.462-0.029,0.684c-0.04,0.824-0.08,1.682-0.151,2.506c-0.222,2.508-0.644,4.483-1.329,6.204    C50.408,15.345,49.955,17.349,49.763,19.504z"/></g><path fill="#000000" d="M27.634,17.11c0,2.675-2.168,4.845-4.843,4.845c-2.675,0-4.845-2.169-4.845-4.845   c0-0.206,0.013-0.41,0.04-0.608c0.266,1.263,1.387,2.211,2.73,2.211c1.542,0,2.79-1.249,2.79-2.79c0-1.542-1.249-2.792-2.79-2.792   c-0.309,0-0.606,0.051-0.883,0.144c0.819-0.633,1.844-1.01,2.958-1.01C25.466,12.265,27.634,14.435,27.634,17.11z"/><path fill="#000000" d="M45.895,17.11c0,2.675-2.168,4.845-4.843,4.845c-2.675,0-4.845-2.169-4.845-4.845   c0-0.206,0.013-0.41,0.04-0.608c0.266,1.263,1.387,2.211,2.73,2.211c1.542,0,2.79-1.249,2.79-2.79c0-1.542-1.249-2.792-2.79-2.792   c-0.309,0-0.606,0.051-0.883,0.144c0.819-0.633,1.844-1.01,2.958-1.01C43.727,12.265,45.895,14.435,45.895,17.11z"/></g><text x="0" y="79" fill="#000000" font-size="5px" font-weight="bold" font-family="'Helvetica Neue', Helvetica, Arial-Unicode, Arial, Sans-serif">Created by Delwar Hossain</text><text x="0" y="84" fill="#000000" font-size="5px" font-weight="bold" font-family="'Helvetica Neue', Helvetica, Arial-Unicode, Arial, Sans-serif">from the Noun Project</text></svg>