<svg xmlns="http://www.w3.org/2000/svg" xmlns:xlink="http://www.w3.org/1999/xlink" version="1.1" x="0px" y="0px" viewBox="-247 370.9 100 125" style="enable-background:new -247 370.9 100 100;" xml:space="preserve"><g><path d="M-208.4,404.6l2.6,20.3h16.1l2.6-20.3h-9.9v-16.7c0.9-0.4,2.7-1.4,3.6-2.9c0.6-0.9,0.8-1.8,0.8-2.6c0-0.8-0.4-1.5-1.1-1.9   c-0.7-0.4-1.4-0.4-2.2-0.1c-0.7,0.3-1.3,1-1.9,1.9c-0.9,1.5-0.9,3.8-0.8,4.7v1.5c-1.2-1.2-2.4-1.3-3.2-0.8h0   c-1,0.6-1.7,2.1-0.4,4.5c0.9,1.5,2.8,2.6,3.6,3v9.4H-208.4z M-196.4,383.2c0.4-0.7,0.8-1.1,1.2-1.3c0.1-0.1,0.3-0.1,0.4-0.1   c0.1,0,0.2,0,0.3,0.1c0.1,0.1,0.3,0.2,0.3,0.6c0,0.4-0.2,1-0.6,1.7c-0.5,0.8-1.4,1.4-2.2,1.9v-0.1c0,0,0-0.1,0-0.1   C-197,384.9-196.8,383.9-196.4,383.2z M-200.8,391.4c-0.6-1.1-0.7-2-0.2-2.3c0.5-0.3,1.2,0.2,1.9,1.3c0.4,0.8,0.6,2,0.6,2.9   C-199.4,392.9-200.3,392.2-200.8,391.4z M-198.6,406.2v3.2c0,0-0.1,0-0.1,0l-3,1.8l-0.1,0.2c-0.6,1-0.9,1.6-1,2l-2.7,0.9l-1.1-8.2   H-198.6z M-191,421.9l-1.9-2.7l-1.6-3.9l-2.5-2.3v-1.9l3,0.8l1.6,3.3l2.1,1.5L-191,421.9z M-205.3,416l2.7-0.9l0.7,2.5l-2.7,4.1   L-205.3,416z M-200.2,417.8l-1-3.3l0,0l-0.2-0.6c0.1-0.3,0.4-0.9,0.8-1.6l1.9-1.2v2l-1.1,3.1l1.1,2.9l0,2.7c0,0.4,0.4,0.8,0.8,0.8   c0,0,0,0,0,0c0.4,0,0.8-0.4,0.8-0.8l0-3l-1-2.7l0.5-1.6l1.6,1.4l1.5,3.7l2.4,3.3h-11.6L-200.2,417.8z M-188.9,406.2l-1.1,8.7   l-1-0.7l-1.7-3.6l-4.1-1v-3.3H-188.9z"/><path d="M-171.3,435.2h-17.4l-2.4,18.6h-13.2l-2.4-18.6h-16.6c-0.4,0-0.8,0.4-0.8,0.8s0.4,0.8,0.8,0.8h15.2l2.4,18.6h16.1l2.4-18.6   h16c0.4,0,0.8-0.4,0.8-0.8S-170.8,435.2-171.3,435.2z"/><ellipse cx="-220.4" cy="439.2" rx="1" ry="1.1"/><ellipse cx="-211.9" cy="443" rx="1" ry="1.1"/><ellipse cx="-215.6" cy="448.1" rx="1" ry="1.1"/><ellipse cx="-209.1" cy="453.1" rx="1" ry="1.1"/><ellipse cx="-210.9" cy="448.1" rx="1" ry="1.1"/><ellipse cx="-211.1" cy="439.2" rx="1" ry="1.1"/><ellipse cx="-221.4" cy="446.5" rx="1" ry="1.1"/><ellipse cx="-191.3" cy="460.3" rx="1" ry="1.1"/><ellipse cx="-180.4" cy="457.6" rx="1" ry="1.1"/><ellipse cx="-175.5" cy="460.3" rx="1" ry="1.1"/><ellipse cx="-176.3" cy="455.8" rx="1" ry="1.1"/><ellipse cx="-186.5" cy="460.3" rx="1" ry="1.1"/><ellipse cx="-185.5" cy="456.5" rx="1" ry="1.1"/><ellipse cx="-197" cy="458.7" rx="1" ry="1.1"/><ellipse cx="-221.8" cy="453.6" rx="1" ry="1.1"/><ellipse cx="-217.3" cy="453.1" rx="1" ry="1.1"/><ellipse cx="-220.4" cy="457" rx="1" ry="1.1"/><ellipse cx="-216.6" cy="441.9" rx="1" ry="1.1"/><ellipse cx="-212.9" cy="453.6" rx="1" ry="1.1"/><ellipse cx="-175.3" cy="439.7" rx="1" ry="1.1"/><ellipse cx="-183.2" cy="443" rx="1" ry="1.1"/><ellipse cx="-179.4" cy="448.1" rx="1" ry="1.1"/><ellipse cx="-186" cy="453.1" rx="1" ry="1.1"/><ellipse cx="-184.9" cy="447" rx="1" ry="1.1"/><ellipse cx="-183.9" cy="439.2" rx="1" ry="1.1"/><ellipse cx="-174.2" cy="445.8" rx="1" ry="1.1"/><ellipse cx="-176.3" cy="452" rx="1" ry="1.1"/><ellipse transform="matrix(-0.5056 -0.8628 0.8628 -0.5056 -648.3368 530.2162)" cx="-172.3" cy="450.9" rx="1.1" ry="1"/><ellipse cx="-178.4" cy="441.4" rx="1" ry="1.1"/><ellipse cx="-182.2" cy="453.6" rx="1" ry="1.1"/><ellipse cx="-216.6" cy="459.8" rx="1" ry="1.1"/><ellipse cx="-208.1" cy="458.7" rx="1" ry="1.1"/><ellipse transform="matrix(-0.5056 -0.8628 0.8628 -0.5056 -700.6952 515.8823)" cx="-202.5" cy="458.7" rx="1.1" ry="1"/><ellipse cx="-212.5" cy="458.1" rx="1" ry="1.1"/><path d="M-197.8,427.6c-0.4,0-0.8,0.4-0.8,0.8V440l-1.1-1.1c-0.3-0.3-0.8-0.3-1.1,0c-0.3,0.3-0.3,0.8,0,1.1l2.5,2.5   c0.1,0.1,0.2,0.1,0.3,0.2c0.1,0,0.2,0.1,0.3,0.1s0.2,0,0.3-0.1c0.1,0,0.2-0.1,0.3-0.2l2.5-2.5c0.3-0.3,0.3-0.8,0-1.1   c-0.3-0.3-0.8-0.3-1.1,0l-1.1,1.1v-11.6C-197,427.9-197.3,427.6-197.8,427.6z"/></g><text x="-247" y="485.9" fill="#000000" font-size="5px" font-weight="bold" font-family="'Helvetica Neue', Helvetica, Arial-Unicode, Arial, Sans-serif">Created by Peter K.</text><text x="-247" y="490.9" fill="#000000" font-size="5px" font-weight="bold" font-family="'Helvetica Neue', Helvetica, Arial-Unicode, Arial, Sans-serif">from the Noun Project</text></svg>